<?xml version="1.0" standalone="no"?>
<!DOCTYPE svg PUBLIC "-//W3C//DTD SVG 20010904//EN"
 "http://www.w3.org/TR/2001/REC-SVG-20010904/DTD/svg10.dtd">
<svg version="1.0" xmlns="http://www.w3.org/2000/svg"
 width="700.000000pt" height="700.000000pt" viewBox="0 0 700.000000 700.000000"
 preserveAspectRatio="xMidYMid meet">
<metadata>
Created by potrace 1.14, written by Peter Selinger 2001-2017
</metadata>
<g transform="translate(0.000000,700.000000) scale(0.100000,-0.100000)"
fill="#000000" stroke="none">
<path d="M3260 6413 c0 -6 -11 -10 -25 -8 -14 1 -25 -2 -25 -8 0 -5 -7 -4 -15
3 -8 7 -15 8 -15 3 0 -5 -20 -9 -44 -9 -24 1 -42 -2 -40 -5 2 -4 -11 -7 -29
-8 -62 -1 -67 -2 -61 -13 4 -6 -2 -6 -15 1 -11 7 -21 8 -21 3 0 -5 -12 -9 -27
-9 -16 0 -36 -3 -45 -7 -9 -4 -22 -8 -30 -10 -7 -1 -19 -5 -25 -9 -8 -5 -13
-4 -13 2 0 6 -5 11 -11 11 -5 0 -7 -4 -4 -10 6 -9 -3 -11 -58 -14 -10 -1 -21
-7 -26 -14 -4 -6 -17 -10 -30 -7 -18 3 -22 1 -17 -13 5 -15 5 -15 -8 1 -11 15
-15 15 -19 3 -4 -9 -15 -13 -27 -11 -11 2 -20 -1 -20 -6 0 -6 -6 -9 -12 -6 -7
2 -19 -3 -26 -12 -10 -12 -12 -13 -6 -1 7 13 6 13 -9 1 -10 -8 -20 -11 -24 -8
-3 4 -12 -1 -20 -11 -9 -10 -11 -11 -7 -2 7 13 5 13 -9 2 -9 -8 -21 -11 -27
-7 -5 3 -10 -2 -10 -11 0 -10 -3 -14 -7 -11 -3 4 -13 1 -21 -6 -13 -10 -14 -9
-7 2 6 11 2 10 -16 -2 -27 -20 -43 -22 -33 -5 4 7 3 8 -4 4 -7 -4 -12 -14 -12
-21 0 -9 -6 -12 -15 -8 -9 3 -23 -3 -31 -13 -9 -11 -12 -12 -8 -4 6 11 2 10
-13 -3 -11 -9 -23 -14 -26 -10 -4 3 -7 1 -7 -6 0 -7 -4 -10 -9 -7 -4 3 -19 -3
-31 -14 -12 -11 -27 -17 -31 -14 -5 3 -9 0 -9 -6 0 -6 -4 -8 -10 -5 -5 3 -10
2 -10 -4 0 -6 -7 -7 -17 -4 -11 4 -14 3 -9 -5 6 -11 -6 -17 -27 -13 -4 1 -10
-6 -13 -14 -3 -8 -10 -12 -15 -9 -5 3 -9 0 -9 -6 0 -7 -7 -10 -15 -6 -9 3 -15
0 -15 -10 0 -10 -6 -14 -15 -10 -8 3 -15 1 -15 -4 0 -6 -7 -10 -15 -10 -8 0
-15 -8 -15 -17 0 -15 -2 -16 -10 -3 -8 12 -10 12 -16 -3 -3 -9 -12 -17 -20
-17 -8 0 -14 -4 -14 -10 0 -5 -7 -10 -16 -10 -9 0 -27 -11 -39 -24 -13 -14
-26 -22 -29 -19 -3 4 -6 1 -6 -6 0 -8 -6 -11 -17 -7 -10 4 -14 4 -11 0 8 -8
-14 -34 -24 -27 -5 2 -8 0 -8 -6 0 -5 -9 -13 -20 -16 -11 -4 -18 -11 -15 -16
4 -5 -1 -9 -9 -9 -9 0 -16 -5 -16 -12 0 -6 -3 -8 -6 -5 -4 3 -19 -7 -34 -23
-15 -16 -30 -27 -33 -24 -3 3 -12 -3 -19 -15 -7 -12 -19 -21 -26 -21 -7 0 -11
-4 -7 -9 3 -5 -4 -12 -15 -16 -11 -4 -18 -11 -15 -16 4 -5 -4 -9 -16 -9 -12 0
-20 -3 -16 -6 8 -8 -18 -34 -34 -34 -7 0 -9 -3 -6 -7 4 -3 -2 -13 -13 -20 -11
-8 -18 -19 -14 -24 3 -5 0 -8 -8 -7 -7 2 -12 -2 -11 -9 2 -7 -4 -10 -12 -7 -8
4 -15 1 -15 -4 0 -6 -22 -33 -49 -60 -28 -28 -47 -53 -43 -58 4 -4 -1 -4 -11
-1 -10 4 -16 3 -13 -1 7 -12 -24 -53 -35 -47 -5 3 -6 0 -3 -8 3 -8 0 -18 -7
-23 -8 -5 -10 -3 -4 6 5 9 4 11 -3 6 -7 -4 -12 -13 -12 -20 0 -7 -13 -27 -29
-44 -16 -16 -27 -33 -24 -36 4 -3 1 -6 -6 -6 -6 0 -16 -11 -21 -25 -5 -14 -14
-25 -20 -25 -6 0 -8 -4 -5 -10 3 -5 0 -10 -8 -10 -8 0 -18 -11 -21 -25 -4 -14
-11 -23 -16 -20 -5 3 -7 -4 -5 -15 2 -11 0 -18 -5 -15 -5 3 -11 -4 -15 -15 -4
-11 -11 -18 -16 -15 -5 3 -6 -1 -3 -9 4 -9 1 -16 -6 -16 -7 0 -10 -8 -7 -20 3
-11 1 -17 -4 -14 -11 6 -34 -15 -35 -33 -2 -30 -5 -34 -14 -28 -5 3 -7 0 -4
-8 3 -8 -2 -17 -11 -21 -9 -3 -14 -10 -11 -15 4 -5 -1 -16 -10 -25 -8 -9 -12
-20 -9 -26 3 -5 1 -10 -5 -10 -7 0 -9 -7 -6 -16 5 -13 3 -14 -7 -6 -10 8 -13
6 -14 -11 -1 -12 -7 -23 -13 -25 -5 -2 -7 -8 -4 -14 3 -5 -2 -16 -12 -24 -11
-9 -14 -13 -7 -9 8 4 8 -3 -2 -22 -8 -15 -15 -32 -15 -37 0 -5 -8 -15 -18 -23
-9 -8 -11 -12 -4 -8 7 4 4 -8 -8 -29 -11 -20 -17 -36 -14 -36 4 0 0 -7 -7 -17
-8 -9 -14 -19 -14 -22 0 -3 -3 -5 -6 -4 -3 1 -4 -9 -1 -22 2 -14 0 -25 -6 -25
-6 0 -13 -18 -17 -40 -4 -22 -11 -38 -16 -35 -5 4 -6 -1 -3 -10 4 -8 1 -21 -5
-29 -6 -7 -8 -16 -4 -19 3 -4 1 -7 -5 -7 -6 0 -9 -7 -6 -15 3 -8 2 -20 -2 -27
-4 -7 -9 -23 -10 -37 -2 -13 -7 -27 -12 -30 -5 -3 -9 -13 -9 -21 -1 -13 -7
-46 -17 -85 -1 -5 -7 -19 -13 -30 -6 -11 -7 -29 -3 -40 5 -13 2 -27 -9 -39 -9
-11 -10 -16 -3 -12 6 4 12 2 12 -3 0 -6 -4 -11 -8 -11 -8 0 -14 -36 -13 -85 0
-10 -4 -24 -8 -30 -5 -5 -8 -23 -6 -40 1 -16 -2 -37 -6 -46 -4 -8 -4 -21 1
-29 5 -9 5 -19 -1 -27 -6 -7 -8 -17 -4 -23 3 -5 1 -10 -6 -10 -7 0 -4 -7 7
-15 11 -9 13 -13 4 -10 -13 5 -15 -15 -15 -143 1 -81 5 -154 10 -161 5 -9 4
-12 -3 -7 -8 4 -11 -3 -9 -24 1 -16 5 -30 9 -30 4 0 3 -11 -2 -25 -7 -19 -6
-27 8 -34 9 -6 12 -11 5 -11 -12 0 -10 -30 3 -52 5 -7 3 -8 -6 -3 -9 6 -11 4
-5 -4 7 -12 14 -55 17 -113 1 -16 4 -28 8 -28 3 0 5 -20 5 -44 -1 -27 3 -42 9
-39 5 4 7 -1 3 -10 -3 -9 -1 -19 5 -23 7 -4 6 -9 -3 -15 -11 -7 -11 -9 -1 -9
7 0 11 -4 7 -9 -3 -5 -1 -12 4 -15 5 -4 8 -17 6 -31 -1 -14 1 -25 6 -25 5 0 6
-7 3 -15 -4 -8 -2 -15 3 -15 5 0 9 -10 8 -22 -1 -13 3 -32 8 -43 6 -11 10 -26
9 -32 -2 -7 2 -13 8 -13 5 0 10 -5 10 -11 0 -5 -5 -7 -10 -4 -6 4 -1 -10 10
-30 11 -20 15 -33 9 -30 -6 4 -4 -4 5 -17 9 -14 13 -28 10 -31 -4 -4 -2 -13 5
-21 6 -8 14 -25 16 -37 3 -13 9 -25 14 -27 6 -2 8 -9 5 -17 -3 -7 0 -16 5 -20
6 -3 9 -11 6 -16 -4 -5 -1 -9 5 -9 6 0 8 -4 5 -10 -3 -5 -1 -10 4 -10 6 0 10
-3 9 -7 -4 -17 23 -92 38 -103 8 -7 13 -19 10 -27 -3 -7 -2 -13 2 -13 4 0 13
-9 20 -21 11 -17 11 -20 0 -14 -10 6 -11 5 0 -6 15 -16 16 -33 0 -23 -7 4 -8
3 -4 -5 4 -6 3 -17 -3 -24 -6 -7 -6 -18 -1 -26 5 -9 3 -20 -7 -30 -11 -11 -12
-16 -4 -19 9 -3 7 -10 -6 -25 -10 -11 -12 -17 -4 -12 9 5 7 -1 -4 -19 -11 -17
-13 -26 -6 -26 7 0 9 -5 6 -10 -4 -6 -11 -8 -16 -5 -5 3 -6 -1 -3 -9 3 -8 1
-24 -6 -35 -8 -16 -8 -21 2 -21 8 0 9 -3 3 -8 -15 -11 -36 -74 -22 -65 7 4 6
-1 -2 -10 -7 -9 -10 -17 -6 -17 4 0 2 -7 -5 -15 -6 -8 -9 -19 -5 -25 4 -6 2
-16 -3 -23 -6 -7 -12 -23 -14 -37 -1 -14 -7 -28 -13 -32 -6 -5 -4 -8 5 -8 13
0 13 -2 1 -9 -8 -5 -14 -22 -15 -38 -1 -15 -6 -27 -13 -26 -8 2 -9 -6 -3 -27
6 -19 5 -32 -2 -36 -7 -5 -8 -2 -3 6 5 9 4 11 -4 6 -9 -6 -9 -11 0 -22 8 -10
8 -14 0 -14 -6 0 -11 -16 -11 -36 0 -19 -4 -33 -8 -30 -4 2 -8 -11 -9 -31 0
-19 -5 -38 -9 -42 -5 -3 -9 -17 -9 -31 0 -14 -4 -28 -9 -31 -5 -4 -10 -23 -12
-44 -2 -20 -9 -44 -16 -53 -11 -13 -11 -14 2 -7 13 8 13 7 1 -8 -7 -9 -11 -17
-8 -17 3 0 -1 -21 -9 -46 -7 -26 -11 -50 -8 -55 3 -5 0 -9 -7 -9 -7 0 -9 -3
-6 -7 4 -3 1 -13 -6 -21 -10 -13 -9 -14 3 -7 12 7 13 6 3 -7 -7 -8 -10 -18 -6
-21 3 -4 2 -7 -3 -7 -6 0 -9 -31 -7 -78 5 -104 5 -102 16 -102 5 0 7 -7 3 -15
-3 -8 -1 -15 5 -15 6 0 9 -6 6 -14 -3 -8 1 -17 9 -20 8 -3 13 -11 12 -18 -2
-7 3 -12 9 -11 7 2 12 0 11 -5 -3 -14 14 -42 23 -36 5 3 9 1 9 -5 0 -16 42
-51 53 -44 7 4 8 -1 3 -12 -6 -16 -4 -16 11 -4 9 8 14 9 10 3 -6 -11 19 -29
36 -26 4 1 7 -2 7 -7 0 -5 8 -8 17 -7 10 2 23 -2 29 -8 17 -17 174 -12 185 5
7 12 9 12 9 0 0 -9 4 -10 13 -4 6 6 30 14 52 18 22 4 46 12 54 18 12 9 13 9 7
0 -4 -7 -2 -13 3 -13 6 0 11 5 11 11 0 7 10 9 25 7 15 -3 22 -1 18 5 -4 6 0 8
10 4 10 -4 17 -1 17 5 0 6 3 8 7 5 3 -4 13 -1 21 6 13 9 14 9 8 0 -5 -9 -2
-11 8 -7 9 3 16 11 16 18 0 6 5 4 10 -4 6 -9 10 -10 10 -3 0 6 9 10 20 8 11
-2 22 1 25 6 4 5 11 7 16 4 5 -4 9 -2 9 3 0 5 14 8 30 7 17 -1 33 2 36 7 3 4
19 8 35 8 17 0 28 4 25 9 -4 5 5 8 19 6 14 -1 28 2 31 6 8 14 26 10 19 -4 -4
-6 0 -4 9 7 8 10 19 16 24 13 4 -4 21 0 36 8 15 8 24 9 20 3 -5 -7 -2 -8 7 -2
8 4 19 9 24 10 6 1 32 7 58 13 27 6 53 9 58 5 5 -3 8 0 7 7 -2 7 7 14 20 15
12 1 29 2 38 3 8 0 13 4 11 9 -3 4 11 7 31 7 22 -1 42 6 49 15 8 10 12 11 13
3 0 -9 7 -10 25 -3 14 5 29 9 33 8 4 -1 17 3 29 10 12 7 26 11 30 10 4 -1 19
4 32 11 17 9 21 10 16 1 -6 -9 -2 -9 16 0 16 9 24 10 27 2 2 -6 10 -8 18 -5 8
3 14 0 14 -7 0 -6 5 -8 10 -5 6 3 10 1 10 -4 0 -6 9 -11 21 -11 11 0 18 -4 15
-8 -3 -5 0 -9 7 -9 21 -1 42 -8 48 -16 4 -5 18 -10 33 -10 14 -1 26 -5 26 -9
0 -5 6 -8 14 -8 7 0 19 -6 26 -14 6 -8 18 -12 25 -10 7 3 25 -2 39 -11 14 -10
26 -14 26 -10 0 4 6 2 14 -4 7 -6 25 -12 40 -13 14 -1 26 -5 26 -9 0 -3 7 -6
15 -7 8 -1 22 -3 30 -4 8 -1 15 -6 15 -11 0 -5 13 -7 30 -5 19 3 31 0 35 -10
3 -8 8 -12 12 -8 3 3 17 -1 29 -9 14 -9 25 -11 29 -5 4 7 13 7 25 0 11 -6 23
-10 27 -9 22 4 34 -2 27 -13 -6 -10 -4 -10 8 0 10 8 19 9 22 3 3 -5 17 -8 31
-6 14 1 25 -2 25 -7 0 -5 4 -7 9 -4 5 4 12 0 14 -6 3 -7 6 -4 6 7 1 15 3 17
10 7 5 -8 30 -16 57 -18 82 -8 93 -9 100 -16 3 -4 17 -2 31 3 21 8 24 7 19 -6
-4 -12 -2 -13 13 -6 10 6 21 8 24 4 9 -9 108 -9 114 0 3 4 10 4 16 -1 12 -9
298 -7 352 3 32 5 65 9 180 20 39 4 72 11 73 16 2 5 8 9 13 9 6 0 7 -5 3 -12
-5 -7 -3 -8 7 -2 17 10 38 15 62 15 9 0 17 4 17 8 0 4 16 7 35 6 19 -2 32 1
29 6 -4 8 33 14 59 10 4 0 7 4 7 10 0 8 5 8 15 -1 12 -10 16 -9 21 4 4 10 12
15 19 12 7 -2 16 -2 19 2 4 3 13 7 21 9 8 2 22 4 30 6 8 2 18 6 21 10 4 4 18
7 31 7 13 0 23 5 23 10 0 6 5 10 11 10 5 0 7 -6 3 -12 -6 -10 -5 -10 8 -1 8 7
19 9 23 5 5 -4 5 -2 1 5 -4 8 5 14 29 19 19 3 35 10 35 15 0 5 11 7 25 5 15
-3 24 0 22 7 -1 7 4 11 11 10 6 -2 12 2 12 8 0 5 4 8 9 5 14 -9 42 5 34 18 -3
6 -3 8 2 4 4 -4 14 -3 22 3 10 9 13 8 13 -2 0 -11 2 -11 10 1 5 8 14 16 20 16
5 1 15 2 21 3 5 0 8 5 5 10 -4 5 2 8 11 7 10 -2 26 7 36 18 10 12 16 15 12 8
-4 -7 9 -4 30 8 20 11 40 18 46 15 5 -3 6 1 3 9 -4 11 0 16 15 16 12 0 21 5
21 11 0 5 4 8 9 5 5 -3 14 1 21 10 7 8 19 13 26 10 9 -3 11 1 7 12 -6 15 -5
16 12 2 17 -14 18 -13 12 2 -3 10 -3 17 1 17 21 -3 32 2 26 13 -5 8 -2 9 10 5
10 -4 19 -1 22 8 4 8 12 15 19 15 10 0 23 9 71 49 7 5 15 7 18 4 3 -4 6 -1 6
5 0 7 6 12 14 12 8 0 16 7 20 15 3 8 17 20 31 25 14 5 25 14 25 20 0 5 7 10
16 10 8 0 12 5 9 10 -3 6 3 10 15 10 12 0 18 5 15 10 -3 6 -1 10 4 10 6 0 27
16 47 35 19 19 40 35 45 35 6 0 7 4 4 10 -3 5 1 10 10 10 8 0 18 7 21 15 4 8
10 12 15 9 5 -3 9 2 9 10 0 9 7 16 16 16 8 0 13 4 10 8 -3 5 4 16 15 25 10 9
19 15 19 12 0 -3 9 4 20 15 12 12 18 26 14 32 -5 7 -3 8 5 4 8 -5 14 -1 18 12
3 14 10 19 21 15 10 -4 13 -2 8 5 -4 7 -1 12 9 12 9 0 13 5 10 10 -3 6 -1 10
5 10 6 0 8 5 5 10 -3 6 1 10 10 10 10 0 13 5 9 12 -5 8 -2 9 12 4 10 -4 15 -4
12 0 -11 10 12 45 24 38 6 -4 8 -3 5 3 -8 12 21 55 33 48 7 -4 23 31 21 47 -1
5 2 7 7 7 4 -1 14 -1 22 0 13 1 13 2 0 11 -13 8 -12 10 3 10 10 0 16 4 13 9
-3 5 8 23 24 41 16 18 27 36 24 41 -3 5 0 8 8 7 8 -2 13 6 12 19 0 19 2 21 15
10 12 -10 13 -9 7 1 -5 8 -1 19 10 27 11 8 15 15 10 15 -6 0 -1 7 10 16 10 8
12 13 4 9 -10 -4 -9 -2 3 8 9 8 17 18 17 22 0 4 8 14 18 22 11 10 12 12 2 8
-8 -4 -6 1 4 9 11 9 16 16 10 16 -5 0 -2 6 6 13 9 7 15 19 15 27 0 8 8 21 17
28 10 7 16 17 13 21 -2 5 4 19 15 31 11 12 17 27 14 31 -3 5 -1 9 5 9 5 0 8 9
6 19 -3 15 1 18 13 14 9 -3 14 -2 9 2 -4 5 1 17 10 28 10 11 12 17 5 13 -7 -4
-3 9 8 29 11 19 20 42 20 51 0 8 4 12 10 9 6 -3 7 1 4 9 -3 9 -1 16 6 16 6 0
8 5 5 10 -3 6 -1 10 5 10 6 0 9 4 6 8 -3 5 2 21 9 36 8 16 12 32 9 37 -3 5 0
9 6 9 6 0 9 4 5 9 -3 5 -1 12 5 16 6 4 8 11 5 16 -4 5 -1 9 5 9 7 0 10 7 6 15
-3 8 0 15 6 15 6 0 8 3 5 7 -4 3 0 17 9 31 11 17 12 22 3 16 -11 -6 -12 -5 -2
8 7 8 10 18 6 21 -3 4 -1 7 4 7 6 0 10 11 9 25 -2 13 1 22 5 19 5 -3 9 7 9 21
0 18 4 24 13 19 9 -6 9 -4 -1 8 -9 12 -10 18 -2 23 6 4 9 13 6 21 -3 7 3 18
12 23 10 6 12 11 4 11 -10 0 -10 5 -2 20 6 11 8 20 4 20 -3 0 -1 6 5 13 6 8 8
17 4 20 -3 4 -2 12 4 19 5 7 9 25 8 41 0 15 2 27 5 27 5 0 10 41 10 88 0 13 4
21 9 18 10 -7 9 13 -2 31 -4 6 -3 14 2 18 5 3 8 14 6 25 -2 11 1 20 6 20 7 0
7 6 0 17 -7 13 -5 23 7 37 9 11 12 16 6 13 -15 -9 -27 20 -12 29 7 5 8 2 3 -6
-5 -9 -4 -11 4 -6 9 6 9 11 0 22 -9 11 -8 14 2 14 12 0 12 2 0 9 -10 6 -10 10
-1 16 9 6 9 10 -1 16 -8 5 -9 9 -4 9 13 0 14 268 2 287 -4 6 -3 15 3 18 8 5 7
11 -1 21 -9 11 -8 14 2 15 8 0 5 4 -6 9 -19 8 -19 9 -1 9 17 1 18 2 1 27 -9
15 -13 24 -7 20 5 -3 9 9 8 29 0 19 -4 35 -8 35 -3 0 -5 8 -3 18 1 9 -3 23 -9
31 -7 10 -7 13 0 8 6 -3 11 0 11 8 0 8 -5 11 -10 8 -7 -4 -8 1 -3 12 4 11 2
22 -6 27 -10 6 -10 8 -1 8 9 0 10 7 2 28 -6 15 -12 43 -13 63 -2 20 -6 41 -10
47 -4 7 -1 12 6 12 8 0 9 3 3 8 -13 9 -37 84 -24 76 5 -3 9 0 9 5 0 6 -7 11
-15 11 -9 0 -12 6 -9 15 4 8 0 23 -7 32 -12 14 -12 15 0 9 9 -6 8 -1 -3 16 -9
14 -13 28 -9 32 4 4 1 11 -7 16 -11 7 -12 10 -2 10 7 0 10 5 7 10 -4 6 -10 8
-15 5 -5 -3 -7 8 -5 24 2 18 -2 34 -11 41 -16 14 -20 35 -4 25 6 -3 7 1 4 9
-3 9 -11 16 -17 16 -6 0 -7 3 -4 7 4 3 -1 15 -10 26 -10 11 -12 17 -4 12 9 -5
8 0 -3 17 -9 14 -13 28 -9 31 3 4 2 7 -4 7 -5 0 -10 7 -11 15 -1 8 -3 22 -4
30 -1 8 -5 15 -10 15 -5 0 -6 5 -3 10 3 6 2 10 -3 10 -6 0 -13 7 -16 16 -3 9
-2 12 5 8 6 -3 5 3 -3 15 -7 12 -17 21 -22 21 -4 0 -2 8 5 17 8 9 10 14 4 11
-16 -9 -31 14 -38 57 -1 6 -10 17 -20 27 -13 12 -15 17 -5 21 10 4 10 6 1 6
-7 1 -13 8 -13 16 0 8 -4 15 -10 15 -5 0 -10 9 -10 21 0 11 -4 17 -10 14 -6
-4 -10 5 -10 20 0 15 -4 24 -10 20 -5 -3 -10 3 -10 14 0 10 -4 21 -9 23 -5 2
-11 10 -13 18 -2 8 -11 23 -21 32 -11 9 -16 22 -12 28 3 5 -1 13 -10 16 -16 7
-40 51 -36 67 1 5 -3 6 -8 3 -5 -4 -15 7 -22 23 -7 16 -17 27 -21 25 -4 -3 -8
4 -8 16 0 12 -4 19 -9 16 -4 -3 -17 12 -27 34 -10 22 -25 40 -31 40 -7 0 -13
10 -13 23 0 18 -2 19 -10 7 -8 -13 -10 -13 -10 2 0 9 -8 22 -17 27 -10 6 -15
11 -11 11 5 0 -8 16 -27 37 -19 20 -31 41 -28 47 4 6 -2 4 -12 -4 -12 -10 -16
-10 -11 -2 5 8 -7 27 -33 52 -23 22 -41 44 -41 49 0 6 -5 13 -12 17 -7 5 -9 2
-4 -7 4 -8 0 -5 -8 6 -31 41 -47 60 -40 45 5 -8 -15 9 -42 38 -28 28 -56 52
-63 52 -6 0 -11 5 -11 11 0 5 -5 7 -12 3 -6 -4 -8 -3 -5 3 6 10 -26 43 -42 43
-6 0 -13 10 -16 21 -6 17 -9 19 -16 8 -6 -10 -9 -10 -9 -2 0 7 -16 23 -35 36
-19 13 -32 27 -28 30 6 6 -11 11 -29 8 -5 0 -8 3 -8 9 0 5 -7 10 -16 10 -8 0
-12 5 -9 10 6 9 -8 14 -27 11 -5 0 -8 4 -8 9 0 11 -68 55 -85 55 -5 0 -10 7
-10 15 0 8 -7 15 -15 16 -35 2 -41 5 -35 14 3 6 1 11 -4 11 -35 4 -81 28 -87
44 -4 8 -10 15 -16 15 -5 0 -6 -6 -3 -12 4 -7 -3 -2 -15 12 -12 14 -18 18 -14
11 4 -9 -6 -5 -24 8 -18 12 -36 19 -42 16 -5 -3 -10 1 -10 10 0 10 -7 15 -18
13 -9 -1 -31 7 -47 18 -50 35 -59 39 -50 23 5 -8 -1 -5 -13 5 -12 11 -22 16
-22 11 0 -4 -7 -2 -15 5 -8 7 -15 9 -15 4 0 -5 -4 -3 -8 3 -7 11 -32 19 -65
22 -5 1 -5 5 -2 11 3 6 -1 7 -9 4 -9 -3 -16 -2 -16 4 0 9 -18 14 -89 26 -13 3
-28 11 -32 18 -7 11 -9 11 -9 0 0 -10 -4 -9 -16 2 -8 9 -19 14 -24 11 -5 -3
-11 -1 -15 5 -4 6 -10 8 -15 5 -5 -3 -20 0 -32 7 -13 7 -29 11 -36 9 -8 -1
-19 3 -26 9 -8 5 -21 8 -30 4 -9 -3 -16 -2 -16 3 0 5 -10 9 -22 10 -30 1 -61
7 -73 14 -5 4 -18 5 -27 4 -10 -2 -18 2 -18 8 0 7 -5 5 -10 -3 -8 -12 -10 -12
-10 -1 0 9 -9 12 -30 9 -16 -3 -30 -1 -30 4 0 5 -4 6 -10 3 -5 -3 -10 -1 -10
6 0 7 -7 4 -16 -7 -8 -10 -13 -13 -9 -6 3 6 3 12 -2 13 -4 1 -26 3 -48 4 -22
2 -50 6 -62 9 -13 2 -25 0 -29 -5 -3 -6 -10 -6 -17 -1 -15 12 -14 12 -212 15
-109 2 -175 -1 -184 -7 -11 -8 -13 -8 -7 2 11 18 -4 15 -27 -5 -11 -10 -17
-13 -14 -7 4 7 0 14 -8 18 -8 3 -15 0 -15 -7 0 -8 -4 -6 -10 3 -5 8 -10 10
-10 3z"/>
</g>
</svg>
